# xmcd
#
# Track frame offsets:
#	150
#	12787
#	26647
#	39490
#	53432
#	64617
#	76135
#	88237
#	101900
#	114595
#	128425
#
# Disc length: 1875 seconds
#
# Revision: 1
# Processed by: cddbd v1.4PL0 Copyright (c) Steve Scherf et al.
# Submitted via: audiograbber 1.80.04
#
DISCID=7e07510b
DTITLE=Conway Twitty - Hello Darlin'
DYEAR=1966
DGENRE=Country
TTITLE0=Rocky Top
TTITLE1=I'll Get Over Losing You
TTITLE2=Up Comes The Bottle ( Down Goes The Man
TTITLE3=You And Your Sweet Love
TTITLE4=Hello Darlin'
TTITLE5=Rose
TTITLE6=Rueben James
TTITLE7=I Never Once Stopped Loving You
TTITLE8=Will You Visit Me On Sunday
TTITLE9=Blues Eyes Crying In The Rain
TTITLE10=I'm So Used To Loving You
EXTD=
EXTT0=
EXTT1=
EXTT2=
EXTT3=
EXTT4=
EXTT5=
EXTT6=
EXTT7=
EXTT8=
EXTT9=
EXTT10=
PLAYORDER=
